<svg width="150" height="38" fill="none" xmlns="http://www.w3.org/2000/svg"><g clip-path="url(#clip0_120:851)" fill="#911C1C"><path d="M18.54.684v4.199H4.734v8.3h11.341v4.005H4.734v12.207H0V.684h18.54zM25.937.781c.493.489.789 1.172.789 1.953 0 .782-.296 1.368-.79 1.856-.492.488-1.183.781-1.971.781-.79 0-1.381-.293-1.973-.781a2.655 2.655 0 01-.789-1.856c0-.78.296-1.367.79-1.953C22.484.293 23.175 0 23.964 0c.788 0 1.38.293 1.972.781zm.197 7.617v20.997h-4.438V8.398h4.438zM32.446 27.734c-1.775-1.27-2.663-3.027-2.663-5.273h4.34c.098 1.074.59 2.05 1.577 2.734.986.684 2.17 1.075 3.649 1.075 1.38 0 2.466-.293 3.353-.782.888-.488 1.282-1.172 1.282-2.05 0-.684-.197-1.172-.592-1.563-.394-.39-.887-.586-1.578-.781-.69-.196-1.676-.293-2.958-.489h-.099l-.591-.097c-1.677-.195-3.156-.488-4.241-.88-1.085-.39-2.071-.976-2.663-1.757-.69-.781-.986-1.758-.986-3.125a5.88 5.88 0 011.085-3.418c.69-.976 1.775-1.758 3.057-2.344 1.282-.586 2.761-.78 4.438-.78 2.663 0 4.832.585 6.41 1.757 1.677 1.172 2.564 2.832 2.663 4.98h-4.34c-.098-.976-.591-1.757-1.479-2.343a5.82 5.82 0 00-3.254-.977c-1.282 0-2.367.293-3.057.781-.79.489-1.184 1.172-1.184 2.051 0 .586.197 1.074.493 1.367.395.293.888.489 1.48.684.591.098 1.479.293 2.662.39h.395c1.874.196 3.353.489 4.635.88 1.183.39 2.268.976 2.959 1.855.789.879 1.183 2.05 1.183 3.515 0 1.27-.394 2.442-1.183 3.419-.79.976-1.874 1.757-3.255 2.343-1.38.489-2.86.782-4.635.782-2.86-.098-5.128-.684-6.903-1.954zM56.509.684v12.793l-.69-.977a8.756 8.756 0 012.86-3.125c1.183-.781 2.662-1.172 4.536-1.172 2.564 0 4.635.781 6.213 2.246 1.578 1.563 2.367 4.004 2.367 7.422v11.524h-4.438V18.066c0-1.953-.394-3.515-1.282-4.59-.888-1.074-2.17-1.562-3.748-1.562-1.183 0-2.17.293-3.057.781-.887.586-1.479 1.367-1.972 2.344-.493.977-.69 2.246-.69 3.613v10.645H52.17V.684h4.339zM112.13 8.398l5.917 16.211 5.72-16.21h4.734l-9.566 24.218a21.347 21.347 0 01-1.381 2.93c-.394.684-.887 1.172-1.578 1.465-.591.293-1.38.488-2.465.488h-4.832v-3.906h3.155c.592 0 1.085-.098 1.381-.196a1.53 1.53 0 00.789-.586c.197-.292.394-.78.69-1.367l.888-2.05L107.298 8.3h4.832v.097zM134.418 28.223a9.356 9.356 0 01-3.846-3.711c-.888-1.66-1.381-3.516-1.381-5.664 0-2.149.395-4.102 1.282-5.664.888-1.563 2.071-2.832 3.649-3.711 1.578-.88 3.353-1.368 5.424-1.368s3.847.391 5.424 1.172c1.578.782 2.762 1.954 3.649 3.516A10.515 10.515 0 01150 18.066v.782c0 .293 0 .586-.099.879h-15.976v.195c.099 1.172.296 2.246.789 3.125a5.208 5.208 0 002.071 2.05 6.17 6.17 0 003.057.782c1.381 0 2.564-.293 3.452-.977.986-.683 1.578-1.562 1.874-2.734h4.536c-.296 1.367-.789 2.637-1.676 3.71a10.708 10.708 0 01-3.255 2.638c-1.38.586-2.86.976-4.536.976-2.17.098-4.142-.39-5.819-1.27zm2.663-15.918a4.853 4.853 0 00-1.972 1.758c-.494.78-.888 1.562-.987 2.539h11.342c-.198-1.563-.789-2.832-1.776-3.614-.986-.879-2.366-1.27-3.944-1.27-.888-.097-1.775.196-2.663.587zM101.578 5.957h-4.635l-2.663-2.93h-8.777l-2.663 2.93h-4.635c-1.578 0-2.958 1.27-2.958 2.93V26.27a2.952 2.952 0 002.958 2.93h23.373c1.578 0 2.959-1.27 2.959-2.93V8.79c0-1.563-1.283-2.833-2.959-2.833zm0 20.215H78.304V8.789h5.917l2.663-2.93h6.213l2.564 2.93h5.917v17.383zM89.941 10.254c-4.044 0-7.298 3.223-7.298 7.226 0 4.004 3.254 7.227 7.298 7.227 4.043 0 7.298-3.223 7.298-7.227 0-4.003-3.255-7.226-7.298-7.226zm0 11.621c-2.367 0-4.34-1.953-4.34-4.297 0-2.344 1.973-4.297 4.34-4.297s4.34 1.953 4.34 4.297c0 2.344-1.973 4.297-4.34 4.297z"/></g><defs><clipPath id="clip0_120:851"><path fill="#fff" d="M0 0h150v37.5H0z"/></clipPath></defs></svg>